# xmcd
#
# Track frame offsets:
# 150
# 19020
# 39138
# 58236
# 78283
# 98416
# 118093
# 138426
# 155044
# 172215
# 188731
# 206773
# 227051
# 247537
# 266921
# 286612
# 298469
# 310854
#
# Disc length: 4387 seconds
#
#
# Revision: 0
# Processed by: cddbd v1.5.1PL0 Copyright (c) Steve Scherf et al.
# Submitted via: FreeRIP 2.942 
#
DISCID=fc112112
DTITLE=Christian Meier - The Millenium Collection
DYEAR=1900
DGENRE=Rock
TTITLE0=Quedate
TTITLE1=Primero En Mojarme
TTITLE2=Esperame En El Tren
TTITLE3=Carreteras Mojadas
TTITLE4=Quien Sabe
TTITLE5=Angel Del Cuarto Piso
TTITLE6=Tus Huellas Entre Las Mias
TTITLE7=Y Es Que Sucede Asi (Arena Hash)
TTITLE8=Esa Es Una Mujer
TTITLE9=No Me Marees
TTITLE10=Me Recuedas  Alguien
TTITLE11=Un Vino, Una Cerveza
TTITLE12=Verte Me Da Igual
TTITLE13=Reparto Otra Vez
TTITLE14=Lugar En El Sofa
TTITLE15=En Esta Habitacion
TTITLE16=Sentimiento
TTITLE17=Alguien Que Bese Como Tu
EXTD=
EXTT0=
EXTT1=
EXTT2=
EXTT3=
EXTT4=
EXTT5=
EXTT6=
EXTT7=
EXTT8=
EXTT9=
EXTT10=
EXTT11=
EXTT12=
EXTT13=
EXTT14=
EXTT15=
EXTT16=
EXTT17=
PLAYORDER=
